# xmcd
#
# Track frame offsets:
#	150
#	17835
#	37543
#	54154
#	70180
#	92620
#	107579
#	124967
#	143392
#	159593
#	180844
#
# Disc length: 2640 seconds
#
# Revision: 1
# Processed by: cddbd v1.5.2PL0 Copyright (c) Steve Scherf et al.
# Submitted via: EasyCDDAExtractor 10.0.3.1
#
DISCID=780a4e0b
DTITLE=Ian Dickson - Love, Music and the Road
DYEAR=2005
DGENRE=Country
TTITLE0=Honey Grove
TTITLE1=Factory Town
TTITLE2=If the Road's Too Long
TTITLE3=Nobody's Drinking Whiskey
TTITLE4=Santa Fe Lounge
TTITLE5=Crazy About You
TTITLE6=Just Another Song
TTITLE7=Beer On My Guitar
TTITLE8=Just Like Patsy Cline
TTITLE9=I Won't Be Around Forever
TTITLE10=The Messenger
EXTD=
EXTT0=
EXTT1=
EXTT2=
EXTT3=
EXTT4=
EXTT5=
EXTT6=
EXTT7=
EXTT8=
EXTT9=
EXTT10=
PLAYORDER=
